<svg id="Capa_1" data-name="Capa 1" xmlns="http://www.w3.org/2000/svg" viewBox="0 0 254.22 52.31"><title>berenice</title><path d="M14.46,20.25c1.23.05,2.87.09,4.89.13s4.07.06,6.11.06,4.19,0,6.15-.06,3.35-.06,4.16-.06q8.76,0,13,2.81t4.29,7.23A8.35,8.35,0,0,1,51.51,35a13.76,13.76,0,0,1-4.86,4.23,23,23,0,0,1-8.32,2.46v.13a30.64,30.64,0,0,1,10.56,2,13.72,13.72,0,0,1,5.76,4.19,8.58,8.58,0,0,1,1.79,5.09q0,6.39-5.12,9.4t-14.08,3c-1,0-2.53,0-4.51-.09s-4.36-.1-7.14-.1q-3.19,0-6.24,0c-2,0-3.66.08-4.89.16V64.28a9.91,9.91,0,0,0,2.94-.51,2.16,2.16,0,0,0,1.28-1.54A14,14,0,0,0,19,58.78V27a14,14,0,0,0-.32-3.49A2.23,2.23,0,0,0,17.37,22a9,9,0,0,0-2.91-.48Zm21,1.28c-1.45,0-2.39.37-2.82,1.09A10.1,10.1,0,0,0,32,27V58.78c0,2.22.27,3.66.8,4.32s1.66,1,3.36,1a5.55,5.55,0,0,0,5.22-2.91C42.46,59.24,43,56.47,43,52.89q0-4.92-2.34-7.61c-1.55-1.8-4.15-2.69-7.77-2.69H28.22V41.5h5.5a5,5,0,0,0,3.84-1.44,8,8,0,0,0,1.86-3.84,24.78,24.78,0,0,0,.51-5.15,18.9,18.9,0,0,0-1-7.14A3.53,3.53,0,0,0,35.45,21.53Z" transform="translate(-14.46 -20.25)"/><path d="M76.15,31.45q5.63,0,8.86,3.3t3.24,11h-20l-.12-1.22H78.9a42.46,42.46,0,0,0-.25-5.79,15.61,15.61,0,0,0-1-4.26c-.47-1.06-1.11-1.6-1.92-1.6-1.15,0-2.09.91-2.81,2.72s-1.2,4.92-1.41,9.32l.25.51c0,.42-.06.85-.06,1.28v1.34a17.45,17.45,0,0,0,1.12,7,7.11,7.11,0,0,0,2.82,3.45,6.88,6.88,0,0,0,3.42,1,12.5,12.5,0,0,0,3.46-.67,8.9,8.9,0,0,0,4.28-3.61l1.09.38a18.88,18.88,0,0,1-2.46,5.09A13.88,13.88,0,0,1,81,64.83a12.39,12.39,0,0,1-6.52,1.63A16.58,16.58,0,0,1,67,64.79a12,12,0,0,1-5.34-5.5q-2-3.84-2-10.3a20.33,20.33,0,0,1,2.18-10,13.42,13.42,0,0,1,5.92-5.69A18.74,18.74,0,0,1,76.15,31.45Z" transform="translate(-14.46 -20.25)"/><path d="M114,31.45a5.76,5.76,0,0,1,3.59,1,5.31,5.31,0,0,1,1.79,2.5,9.24,9.24,0,0,1,.51,3,6.3,6.3,0,0,1-1.63,4.57,5.66,5.66,0,0,1-4.26,1.7,6.22,6.22,0,0,1-4.25-1.28,4.25,4.25,0,0,1-1.44-3.33A6.45,6.45,0,0,1,109.2,36a8.51,8.51,0,0,1,2.34-2.37,4.51,4.51,0,0,0-2.05.45,6.19,6.19,0,0,0-1.89,1.31,6.81,6.81,0,0,0-1.37,2,5.74,5.74,0,0,0-.51,2.4V59c0,2.05.42,3.44,1.28,4.16a6.47,6.47,0,0,0,4.22,1.09v1.34l-4.38-.16c-2-.06-3.94-.09-6-.09s-3.86,0-5.82.09l-4.42.16V64.22a3.48,3.48,0,0,0,2.79-1,6,6,0,0,0,.8-3.65V39.32a9.06,9.06,0,0,0-.77-4.25,2.94,2.94,0,0,0-2.82-1.38V32.35c1.37.13,2.69.19,4,.19,2.13,0,4.13-.07,6-.22a48.7,48.7,0,0,0,5.16-.68v4.61a8.67,8.67,0,0,1,2-2.72A8.16,8.16,0,0,1,110.55,32,11,11,0,0,1,114,31.45Z" transform="translate(-14.46 -20.25)"/><path d="M137.84,31.45q5.64,0,8.87,3.3t3.23,11h-20l-.13-1.22h10.81a40.91,40.91,0,0,0-.25-5.79,15.61,15.61,0,0,0-1-4.26c-.47-1.06-1.11-1.6-1.92-1.6-1.15,0-2.09.91-2.81,2.72s-1.2,4.92-1.41,9.32l.26.51a10.86,10.86,0,0,0-.07,1.28v1.34a17.63,17.63,0,0,0,1.12,7,7.16,7.16,0,0,0,2.82,3.45,6.88,6.88,0,0,0,3.42,1,12.37,12.37,0,0,0,3.46-.67,9,9,0,0,0,4.29-3.61l1.08.38a18.88,18.88,0,0,1-2.46,5.09,14,14,0,0,1-4.38,4.16,12.45,12.45,0,0,1-6.53,1.63,16.58,16.58,0,0,1-7.46-1.67,12,12,0,0,1-5.34-5.5q-2-3.84-2-10.3a20.33,20.33,0,0,1,2.17-10,13.42,13.42,0,0,1,5.92-5.69A18.77,18.77,0,0,1,137.84,31.45Z" transform="translate(-14.46 -20.25)"/><path d="M177.58,31.45a11.89,11.89,0,0,1,4.64.74,6.88,6.88,0,0,1,2.6,1.82,7.35,7.35,0,0,1,1.4,3.07,23.71,23.71,0,0,1,.45,5.19V59.61a6,6,0,0,0,.8,3.65,3.46,3.46,0,0,0,2.79,1v1.34l-3.88-.16c-1.72-.06-3.42-.09-5.08-.09s-3.55,0-5.25.09l-3.84.16V64.22a2.56,2.56,0,0,0,2.3-1,7.15,7.15,0,0,0,.64-3.65V38.81a6.6,6.6,0,0,0-.32-2.24,2.6,2.6,0,0,0-1-1.34,3.25,3.25,0,0,0-1.82-.45,4.62,4.62,0,0,0-3.2,1.28,4.28,4.28,0,0,0-1.41,3.33V59.61a6.88,6.88,0,0,0,.67,3.65,2.58,2.58,0,0,0,2.27,1v1.34l-3.58-.16q-2.37-.09-4.86-.09c-1.8,0-3.61,0-5.44.09l-4.16.16V64.22a3.45,3.45,0,0,0,2.78-1,6,6,0,0,0,.8-3.65V39.32a9.06,9.06,0,0,0-.77-4.25,2.93,2.93,0,0,0-2.81-1.38V32.35c1.36.13,2.68.19,4,.19,2.14,0,4.13-.07,6-.22a48.84,48.84,0,0,0,5.15-.68v4.61a8.85,8.85,0,0,1,4.13-3.68A15.21,15.21,0,0,1,177.58,31.45Z" transform="translate(-14.46 -20.25)"/><path d="M194.93,40.34a5,5,0,1,1,3.53,1.47A4.79,4.79,0,0,1,194.93,40.34Zm0,25a5,5,0,1,1,8.53-3.53,12,12,0,0,1-2.41,7.69c-1.6,2-3.24,3.06-4.9,3.06v-.62a3.59,3.59,0,0,0,2.62-1.35A3.87,3.87,0,0,0,200,68.06c0-.83-.52-1.25-1.56-1.25A4.8,4.8,0,0,1,194.93,65.34Z" transform="translate(-14.46 -20.25)"/><path d="M224.33,31.45a19.32,19.32,0,0,1,5,.58,13.41,13.41,0,0,1,3.45,1.34,8.25,8.25,0,0,1,2.79,2.72A7.32,7.32,0,0,1,236.61,40a6.1,6.1,0,0,1-1.72,4.41,5.88,5.88,0,0,1-4.42,1.8,5.42,5.42,0,0,1-5.89-5.76,5.85,5.85,0,0,1,1.57-4.13,7.64,7.64,0,0,1,3.68-2.27,4.23,4.23,0,0,0-1.06-.55,4.32,4.32,0,0,0-1.5-.22,5.21,5.21,0,0,0-3.74,1.37,9.18,9.18,0,0,0-2.24,3.62,21.87,21.87,0,0,0-1.12,4.8,39,39,0,0,0-.32,5,16.29,16.29,0,0,0,1.21,7,7.31,7.31,0,0,0,3.07,3.45,8,8,0,0,0,3.71,1,12.37,12.37,0,0,0,3.46-.67,9,9,0,0,0,4.29-3.61l1.09.38a19.22,19.22,0,0,1-2.47,5.09,14,14,0,0,1-4.38,4.16,12.43,12.43,0,0,1-6.53,1.63,17.78,17.78,0,0,1-7.77-1.67,12.28,12.28,0,0,1-5.57-5.5q-2.09-3.84-2.08-10.3a20.33,20.33,0,0,1,2.17-10A13.47,13.47,0,0,1,216,33.28,18.79,18.79,0,0,1,224.33,31.45Z" transform="translate(-14.46 -20.25)"/><path d="M256.58,31.45q5.63,0,8.86,3.3t3.23,11h-20l-.12-1.22h10.81a40.84,40.84,0,0,0-.26-5.79,15.29,15.29,0,0,0-1-4.26c-.47-1.06-1.11-1.6-1.92-1.6-1.15,0-2.09.91-2.82,2.72s-1.19,4.92-1.4,9.32l.25.51c0,.42-.06.85-.06,1.28v1.34a17.45,17.45,0,0,0,1.12,7A7.15,7.15,0,0,0,256,58.52a6.91,6.91,0,0,0,3.43,1,12.38,12.38,0,0,0,3.45-.67,9,9,0,0,0,4.29-3.61l1.09.38a18.88,18.88,0,0,1-2.46,5.09,14,14,0,0,1-4.39,4.16,12.43,12.43,0,0,1-6.53,1.63,16.54,16.54,0,0,1-7.45-1.67,12,12,0,0,1-5.34-5.5q-2-3.84-2-10.3a20.33,20.33,0,0,1,2.18-10,13.42,13.42,0,0,1,5.92-5.69A18.74,18.74,0,0,1,256.58,31.45Z" transform="translate(-14.46 -20.25)"/></svg>