<svg id="Capa_2" data-name="Capa 2" xmlns="http://www.w3.org/2000/svg" viewBox="0 0 99.22 36.25"><defs><style>.cls-1,.cls-2{fill:#fff;}.cls-2{stroke:#fff;stroke-miterlimit:10;stroke-width:0.5px;}</style></defs><title>logo-white</title><path class="cls-1" d="M2.88,3.81c.48,0,1.12,0,1.91,0s1.59,0,2.39,0,1.63,0,2.39,0l1.63,0a9.41,9.41,0,0,1,5.09,1.1A3.27,3.27,0,0,1,18,7.76a3.25,3.25,0,0,1-.63,1.81,5.21,5.21,0,0,1-1.9,1.65,8.92,8.92,0,0,1-3.24,1v.05a12.11,12.11,0,0,1,4.12.8,5.39,5.39,0,0,1,2.25,1.64,3.37,3.37,0,0,1,.7,2,4,4,0,0,1-2,3.68,10.91,10.91,0,0,1-5.5,1.17c-.4,0-1,0-1.76,0s-1.7,0-2.78,0l-2.44,0c-.79,0-1.43,0-1.91.06V21A3.86,3.86,0,0,0,4,20.8a.86.86,0,0,0,.5-.6,5.63,5.63,0,0,0,.12-1.35V6.46A5.62,5.62,0,0,0,4.53,5.1.91.91,0,0,0,4,4.5a3.43,3.43,0,0,0-1.14-.19Zm8.19.5c-.56,0-.93.14-1.1.43a4,4,0,0,0-.25,1.72V18.85A3,3,0,0,0,10,20.54c.2.26.64.38,1.31.38a2.14,2.14,0,0,0,2-1.13A6.66,6.66,0,0,0,14,16.55a4.38,4.38,0,0,0-.91-3,3.84,3.84,0,0,0-3-1.05H8.25v-.42H10.4a1.94,1.94,0,0,0,1.5-.57,3,3,0,0,0,.72-1.49,9.93,9.93,0,0,0,.2-2,7.35,7.35,0,0,0-.4-2.79A1.39,1.39,0,0,0,11.07,4.31Z" transform="translate(-2.88 -3.81)"/><path class="cls-1" d="M27,8.19a4.62,4.62,0,0,1,3.46,1.28c.84.86,1.26,2.3,1.26,4.31H23.86l-.05-.47H28a14.75,14.75,0,0,0-.1-2.26,5.68,5.68,0,0,0-.4-1.67c-.18-.41-.43-.62-.75-.62s-.81.35-1.09,1.06a12.18,12.18,0,0,0-.55,3.64l.1.2a4.07,4.07,0,0,0,0,.5v.52a6.81,6.81,0,0,0,.44,2.72,2.79,2.79,0,0,0,1.1,1.35,2.67,2.67,0,0,0,1.33.38,4.67,4.67,0,0,0,1.35-.27,3.43,3.43,0,0,0,1.68-1.41l.42.15a7.41,7.41,0,0,1-1,2,5.3,5.3,0,0,1-1.71,1.62,4.78,4.78,0,0,1-2.55.64,6.48,6.48,0,0,1-2.91-.65,4.74,4.74,0,0,1-2.09-2.15,8.9,8.9,0,0,1-.77-4,7.89,7.89,0,0,1,.85-3.91A5.21,5.21,0,0,1,23.7,8.9,7.26,7.26,0,0,1,27,8.19Z" transform="translate(-2.88 -3.81)"/><path class="cls-1" d="M41.72,8.19a2.22,2.22,0,0,1,1.4.38,2.07,2.07,0,0,1,.7,1,3.68,3.68,0,0,1,.2,1.16,2.43,2.43,0,0,1-.64,1.78,2.17,2.17,0,0,1-1.66.67,2.46,2.46,0,0,1-1.66-.5,1.69,1.69,0,0,1-.56-1.3,2.51,2.51,0,0,1,.36-1.4A3.36,3.36,0,0,1,40.77,9a1.74,1.74,0,0,0-.8.18,2.54,2.54,0,0,0-.73.51,2.48,2.48,0,0,0-.54.78,2.25,2.25,0,0,0-.2.93v7.5a2.07,2.07,0,0,0,.5,1.62,2.56,2.56,0,0,0,1.65.42v.53l-1.71-.06c-.76,0-1.54,0-2.34,0s-1.51,0-2.27,0l-1.73.06V21a1.35,1.35,0,0,0,1.09-.37A2.3,2.3,0,0,0,34,19.18V11.26a3.5,3.5,0,0,0-.3-1.66,1.14,1.14,0,0,0-1.1-.54V8.53c.54.05,1,.08,1.55.08.84,0,1.61,0,2.34-.09a18.92,18.92,0,0,0,2-.26v1.8A3.36,3.36,0,0,1,39.3,9a2.93,2.93,0,0,1,1.09-.61A4,4,0,0,1,41.72,8.19Z" transform="translate(-2.88 -3.81)"/><path class="cls-1" d="M51,8.19A4.62,4.62,0,0,1,54.5,9.47c.84.86,1.26,2.3,1.26,4.31H47.94l0-.47h4.22a14.75,14.75,0,0,0-.1-2.26,5.68,5.68,0,0,0-.4-1.67c-.18-.41-.43-.62-.75-.62s-.81.35-1.1,1.06a12.88,12.88,0,0,0-.55,3.64l.1.2c0,.16,0,.33,0,.5v.52a6.81,6.81,0,0,0,.44,2.72,2.73,2.73,0,0,0,1.1,1.35,2.67,2.67,0,0,0,1.33.38,4.74,4.74,0,0,0,1.35-.27,3.37,3.37,0,0,0,1.67-1.41l.43.15a7.41,7.41,0,0,1-1,2,5.3,5.3,0,0,1-1.71,1.62,4.78,4.78,0,0,1-2.55.64,6.48,6.48,0,0,1-2.91-.65,4.69,4.69,0,0,1-2.09-2.15,8.9,8.9,0,0,1-.77-4,7.89,7.89,0,0,1,.85-3.91A5.16,5.16,0,0,1,47.78,8.9,7.26,7.26,0,0,1,51,8.19Z" transform="translate(-2.88 -3.81)"/><path class="cls-1" d="M66.55,8.19a4.67,4.67,0,0,1,1.81.28,2.64,2.64,0,0,1,1,.71,2.78,2.78,0,0,1,.55,1.2,9.09,9.09,0,0,1,.18,2v6.77a2.3,2.3,0,0,0,.31,1.42A1.35,1.35,0,0,0,71.5,21v.53L70,21.44c-.67,0-1.33,0-2,0s-1.38,0-2,0l-1.5.06V21a1,1,0,0,0,.9-.37,2.74,2.74,0,0,0,.25-1.42V11.06a2.79,2.79,0,0,0-.12-.88,1.11,1.11,0,0,0-.39-.52,1.24,1.24,0,0,0-.71-.18,1.8,1.8,0,0,0-1.25.5,1.68,1.68,0,0,0-.55,1.3v7.9a2.72,2.72,0,0,0,.26,1.42,1,1,0,0,0,.89.37v.53l-1.4-.06c-.62,0-1.25,0-1.9,0s-1.41,0-2.12,0l-1.63.06V21a1.35,1.35,0,0,0,1.09-.37,2.3,2.3,0,0,0,.31-1.42V11.26a3.5,3.5,0,0,0-.3-1.66,1.14,1.14,0,0,0-1.1-.54V8.53c.54.05,1,.08,1.55.08q1.25,0,2.34-.09a18.92,18.92,0,0,0,2-.26v1.8a3.44,3.44,0,0,1,1.61-1.44A5.92,5.92,0,0,1,66.55,8.19Z" transform="translate(-2.88 -3.81)"/><path class="cls-1" d="M73.32,11.66a1.91,1.91,0,0,1-.57-1.38,1.95,1.95,0,0,1,2-1.95,1.91,1.91,0,0,1,1.38.57,1.88,1.88,0,0,1,.57,1.38,1.95,1.95,0,0,1-2,2A1.88,1.88,0,0,1,73.32,11.66Zm0,9.75a1.94,1.94,0,0,1,0-2.75,1.85,1.85,0,0,1,1.38-.58,2,2,0,0,1,2,2,4.7,4.7,0,0,1-.94,3,2.57,2.57,0,0,1-1.92,1.19V24a1.43,1.43,0,0,0,1-.53,1.49,1.49,0,0,0,.49-1c0-.32-.21-.48-.61-.48A1.85,1.85,0,0,1,73.32,21.41Z" transform="translate(-2.88 -3.81)"/><path class="cls-1" d="M84.79,8.19a7.59,7.59,0,0,1,1.95.22,5.21,5.21,0,0,1,1.35.52A3.28,3.28,0,0,1,89.18,10a2.87,2.87,0,0,1,.41,1.53,2.39,2.39,0,0,1-.67,1.73,2.33,2.33,0,0,1-1.73.7,2.12,2.12,0,0,1-2.3-2.25,2.27,2.27,0,0,1,.62-1.61,3,3,0,0,1,1.43-.89A1.74,1.74,0,0,0,86.53,9a1.66,1.66,0,0,0-.59-.09,2,2,0,0,0-1.46.54,3.67,3.67,0,0,0-.87,1.41,8.52,8.52,0,0,0-.44,1.87,16.45,16.45,0,0,0-.12,1.95,6.27,6.27,0,0,0,.47,2.72,2.88,2.88,0,0,0,1.2,1.35,3.11,3.11,0,0,0,1.45.38,4.8,4.8,0,0,0,1.35-.27,3.46,3.46,0,0,0,1.67-1.41l.42.15a7.12,7.12,0,0,1-1,2,5.3,5.3,0,0,1-1.71,1.62,4.78,4.78,0,0,1-2.55.64,7,7,0,0,1-3-.65,4.79,4.79,0,0,1-2.17-2.15,8.48,8.48,0,0,1-.82-4,8,8,0,0,1,.85-3.91A5.26,5.26,0,0,1,81.53,8.9,7.29,7.29,0,0,1,84.79,8.19Z" transform="translate(-2.88 -3.81)"/><path class="cls-1" d="M97.38,8.19a4.6,4.6,0,0,1,3.46,1.28c.84.86,1.26,2.3,1.26,4.31H94.29l-.05-.47h4.22a17.82,17.82,0,0,0-.1-2.26A6.39,6.39,0,0,0,98,9.38c-.19-.41-.44-.62-.75-.62s-.82.35-1.1,1.06a12.52,12.52,0,0,0-.55,3.64l.1.2a4.07,4.07,0,0,0,0,.5v.52a6.81,6.81,0,0,0,.44,2.72,2.79,2.79,0,0,0,1.1,1.35,2.7,2.7,0,0,0,1.34.38,4.8,4.8,0,0,0,1.35-.27,3.46,3.46,0,0,0,1.67-1.41l.42.15a7.41,7.41,0,0,1-1,2,5.3,5.3,0,0,1-1.71,1.62,4.78,4.78,0,0,1-2.55.64,6.54,6.54,0,0,1-2.91-.65,4.67,4.67,0,0,1-2.08-2.15A8.76,8.76,0,0,1,91,15a8,8,0,0,1,.85-3.91A5.26,5.26,0,0,1,94.12,8.9,7.29,7.29,0,0,1,97.38,8.19Z" transform="translate(-2.88 -3.81)"/><path class="cls-2" d="M5.15,36a4,4,0,0,1,.27-1.48,3.37,3.37,0,0,1,.74-1.19,3.58,3.58,0,0,1,1.12-.8,3.39,3.39,0,0,1,1.39-.29,3.19,3.19,0,0,1,1.67.42,2.8,2.8,0,0,1,1.1,1.21l-.29.1a2.61,2.61,0,0,0-1-1.07,3.05,3.05,0,0,0-2.73-.11,3.28,3.28,0,0,0-1.7,1.85A3.56,3.56,0,0,0,5.43,36a4,4,0,0,0,.26,1.38,3.74,3.74,0,0,0,.71,1.13,3.35,3.35,0,0,0,1,.77,2.75,2.75,0,0,0,1.24.28,3.26,3.26,0,0,0,.86-.13,3.52,3.52,0,0,0,.79-.35,2.48,2.48,0,0,0,.61-.49,1.6,1.6,0,0,0,.34-.58l.28.08a2.11,2.11,0,0,1-.4.69,2.91,2.91,0,0,1-.65.55,3.42,3.42,0,0,1-.85.37,3.26,3.26,0,0,1-2.31-.16,3.69,3.69,0,0,1-1.13-.82,4.14,4.14,0,0,1-.77-1.22A4,4,0,0,1,5.15,36Z" transform="translate(-2.88 -3.81)"/><path class="cls-2" d="M27.51,39.74a3.14,3.14,0,0,1-1.36-.3A3.46,3.46,0,0,1,25,38.63a4.07,4.07,0,0,1-.76-1.21,4,4,0,0,1,0-2.92A4,4,0,0,1,25,33.29a3.52,3.52,0,0,1,1.12-.83,3,3,0,0,1,1.34-.31,3.16,3.16,0,0,1,1.35.3,3.56,3.56,0,0,1,1.11.82,4.07,4.07,0,0,1,.76,1.21A3.92,3.92,0,0,1,31,35.94a3.93,3.93,0,0,1-1,2.67,3.49,3.49,0,0,1-1.11.82A3,3,0,0,1,27.51,39.74ZM24.28,36a3.76,3.76,0,0,0,.26,1.34,3.47,3.47,0,0,0,.69,1.11,3.14,3.14,0,0,0,1,.75,2.88,2.88,0,0,0,1.24.27,2.79,2.79,0,0,0,1.24-.29,3.35,3.35,0,0,0,1-.77,3.52,3.52,0,0,0,.69-1.11,3.73,3.73,0,0,0,0-2.71,3.71,3.71,0,0,0-.69-1.11,3.49,3.49,0,0,0-1-.76,2.82,2.82,0,0,0-2.47,0,3.27,3.27,0,0,0-1,.77,3.77,3.77,0,0,0-.94,2.5Z" transform="translate(-2.88 -3.81)"/><path class="cls-2" d="M47.27,32.47a2.92,2.92,0,0,0-1.81.69,3.34,3.34,0,0,0-1,1.74v4.64h-.28l0-7.34h.28v1.9a3.84,3.84,0,0,1,1-1.29,2.82,2.82,0,0,1,1.37-.59l.26,0h.2Z" transform="translate(-2.88 -3.81)"/><path class="cls-2" d="M62.89,39.13a2,2,0,0,1-.39.22,3,3,0,0,1-.42.13,1.81,1.81,0,0,1-.54.07,1.36,1.36,0,0,1-.89-.31,1,1,0,0,1-.38-.82l0-6H59.19v-.28h1.07V29.59h.28v2.56H62.3v.28H60.53l0,6a.82.82,0,0,0,.33.63,1.07,1.07,0,0,0,.66.22,2.31,2.31,0,0,0,.46-.05l.37-.12a1.17,1.17,0,0,0,.25-.12l.11-.07Z" transform="translate(-2.88 -3.81)"/><path class="cls-2" d="M78.33,39.56a3.22,3.22,0,0,1-1.37-.3,3.52,3.52,0,0,1-1.12-.83,4.07,4.07,0,0,1-1.06-2.72A4.06,4.06,0,0,1,75,34.26a4,4,0,0,1,.74-1.2,3.62,3.62,0,0,1,1.1-.8,3.36,3.36,0,0,1,2.73,0,3.58,3.58,0,0,1,1.12.8,4,4,0,0,1,1,2.68v.16l-6.72,0a4,4,0,0,0,.34,1.32,3.87,3.87,0,0,0,.72,1.07,3.24,3.24,0,0,0,1,.71,3,3,0,0,0,1.21.26,2.87,2.87,0,0,0,.83-.12,3.14,3.14,0,0,0,.75-.32,2.47,2.47,0,0,0,1-1.11l.27.07a2.53,2.53,0,0,1-.45.7,3,3,0,0,1-.67.55,3.42,3.42,0,0,1-.85.37A3.34,3.34,0,0,1,78.33,39.56Zm3.15-3.94a4,4,0,0,0-.31-1.36,3.46,3.46,0,0,0-.71-1.06,3.17,3.17,0,0,0-1-.7,2.88,2.88,0,0,0-1.21-.25,2.93,2.93,0,0,0-1.22.26,3,3,0,0,0-1,.71,3.15,3.15,0,0,0-.68,1.08,4.16,4.16,0,0,0-.3,1.34Z" transform="translate(-2.88 -3.81)"/><path class="cls-2" d="M93.94,39.08l5.57-6.79-5.53,0V32l5.89,0v.29l-5.56,6.79,5.53,0v.28l-5.9,0Z" transform="translate(-2.88 -3.81)"/></svg>